<svg xmlns="http://www.w3.org/2000/svg" viewBox="0 0 841.24 189.76"><defs><style>.cls-1{fill:#fff;}</style></defs><g id="Ebene_2" data-name="Ebene 2"><g id="Ebene_1-2" data-name="Ebene 1"><path class="cls-1" d="M110.93,98.67H78.82c-7,0-12.65-6.15-12.65-13.72V65.69a7.3,7.3,0,0,1,14.6,0V84.07H109V65.69a7.3,7.3,0,1,1,14.59,0V85C123.59,92.52,117.91,98.67,110.93,98.67Z"/><path class="cls-1" d="M148.41,171.47a7.29,7.29,0,0,1-7.3-7.29V87.09A14.13,14.13,0,0,0,127,73H62.77A14.12,14.12,0,0,0,48.66,87.09v75.69a7.3,7.3,0,1,1-14.6,0V87.09a28.73,28.73,0,0,1,28.71-28.7H127a28.73,28.73,0,0,1,28.71,28.7v77.09A7.29,7.29,0,0,1,148.41,171.47Z"/><path class="cls-1" d="M94.88,189.76a94.88,94.88,0,1,1,94.88-94.88A95,95,0,0,1,94.88,189.76Zm0-175.16a80.28,80.28,0,1,0,80.29,80.28A80.37,80.37,0,0,0,94.88,14.6Z"/><path class="cls-1" d="M251.9,80.27H237.26V70h41.3V80.27H263.84v42.28H251.9Z"/><path class="cls-1" d="M277.29,103c0-12.39,8.26-21,20.35-21,13.07,0,19.91,9.62,19.91,20.66V106H288.33c.38,5,4.06,8.63,9.54,8.63,4.58,0,7.66-2.25,8.79-4.73h10.51c-1.8,8.34-9,13.67-19.75,13.67C285.93,123.53,277.29,114.89,277.29,103Zm29.44-4.73c-.45-4.2-3.9-7.43-9.09-7.43a9,9,0,0,0-9.08,7.43Z"/><path class="cls-1" d="M323,102.73c0-11.72,8.18-20.81,21-20.81,11,0,18.93,6.69,20,16.38H352.17A8.27,8.27,0,0,0,344,92.44c-5.71,0-9.24,4.58-9.24,10.29S338.43,113,344.06,113a8,8,0,0,0,8-5.41h11.87c-1.28,9.39-9,15.92-19.9,15.92C331.22,123.53,323,114.37,323,102.73Z"/><path class="cls-1" d="M371.7,66.23h11.57v21h.6c1.57-2.71,5.11-5.34,10.44-5.34,8.79,0,14.12,5.94,14.12,14.2v26.43H396.79V99.72c0-4-2.56-7-6.54-7s-6.91,3.3-6.91,7.43v22.38H371.7Z"/><path class="cls-1" d="M422.29,70h33.27V80.12h-21.4V92.21h19.3v10.14h-19.3v20.2H422.29Z"/><path class="cls-1" d="M461.53,110.09V66.23h11.64v42.51c0,2.4,1.2,3.6,3.3,3.6h1.43v10.21h-4C466,122.55,461.53,117.82,461.53,110.09Z"/><path class="cls-1" d="M482.56,103c0-12.39,8.26-21,20.35-21,13.07,0,19.9,9.62,19.9,20.66V106H493.6c.37,5,4,8.63,9.54,8.63,4.58,0,7.66-2.25,8.78-4.73h10.52c-1.8,8.34-9,13.67-19.75,13.67C491.19,123.53,482.56,114.89,482.56,103ZM512,98.22c-.45-4.2-3.91-7.43-9.09-7.43a9,9,0,0,0-9.09,7.43Z"/><path class="cls-1" d="M528.22,103c0-12.46,7.36-21,18-21,6.23,0,9.84,3.38,11.19,5.49h.6V82.9h11.64v39.65H558.11v-4.5h-.6c-1.12,1.8-4.43,5.48-11,5.48C535.66,123.53,528.22,115.42,528.22,103Zm30-.22c0-6.31-3.83-10.29-9.16-10.29S540,96.64,540,102.73,543.69,113,549.18,113,558.26,108.59,558.26,102.73Z"/><path class="cls-1" d="M585.47,70h14.64l14.2,35.68h.45L627.23,70H642v52.57H630.46V92.81H630l-11,29.74H609.5L597.34,91.61h-.45v30.94H585.47Z"/><path class="cls-1" d="M647.76,103c0-12.46,7.36-21,18-21,6.23,0,9.84,3.38,11.19,5.49h.6V82.9h11.64v39.65H677.65v-4.5h-.6c-1.12,1.8-4.43,5.48-11,5.48C655.2,123.53,647.76,115.42,647.76,103Zm30-.22c0-6.31-3.83-10.29-9.17-10.29s-9.08,4.2-9.08,10.29S663.23,113,668.72,113,677.81,108.59,677.81,102.73Z"/><path class="cls-1" d="M697.78,82.9h11v6h.6a11.22,11.22,0,0,1,10.21-6.31h3.83v11h-4.58c-5.7,0-9.38,4.14-9.38,11v18H697.78Z"/><path class="cls-1" d="M755.67,122.55,747,106.11,741.7,112v10.59H730.06V66.23H741.7V96.42h.45L753.42,82.9h14.34L755,97.17l13.75,25.38Z"/><path class="cls-1" d="M769.12,103c0-12.39,8.26-21,20.35-21,13.07,0,19.9,9.62,19.9,20.66V106H780.16c.37,5,4.05,8.63,9.53,8.63,4.58,0,7.66-2.25,8.79-4.73H809c-1.81,8.34-9,13.67-19.76,13.67C777.75,123.53,769.12,114.89,769.12,103Zm29.44-4.73c-.46-4.2-3.91-7.43-9.09-7.43a9,9,0,0,0-9.09,7.43Z"/><path class="cls-1" d="M819.24,108.81V92h-6.38V83h3.75c2.1,0,3.23-1.42,3.23-3.52V72.16h11V82.9h10.36V92H830.88v16.22c0,2.93,1.65,4.73,5.11,4.73h5.1v9.61h-8C824.42,122.55,819.24,117.52,819.24,108.81Z"/></g></g></svg>
